# xmcd
#
# Track frame offsets: 
#        150
#        13527
#        26078
#        37761
#        49171
#        59574
#        73393
#        83874
#        94694
#        108897
#        122760
#        137311
#        150608
#        162090
#        174060
#        187551
#        199223
#        210473
#        222614
#        233833
#
# Disc length: 3254 seconds
#
# Revision: 0
# Processed by: cddbd v1.5.2PL0 Copyright (c) Steve Scherf et al.
# Submitted via: ExactAudioCopyFreeDBPlugin 1.0
#
DISCID=050cb414
DTITLE=Lefty Frizzell - The Essential Recordings - CD1
DYEAR=2015
DGENRE=Country
TTITLE0=If You've Got The Money (I've Got The Time) (1950)
TTITLE1=I Love You A Thousand Ways (1950)
TTITLE2=Shine, Shave, And Shower (It's Saturday) (1951)
TTITLE3=Look What Thoughts Will Do (1951)
TTITLE4=My Baby's Just Like Money (1951)
TTITLE5=I Want To Be With You Always (1951)
TTITLE6=Give Me More, More, More (Of Your Kisses) (1952)
TTITLE7=How Long Will It Take (To Stop Loving You) (1951)
TTITLE8=Always Late (With Your Kisses) (1951)
TTITLE9=Mom And Dad's Waltz (1951)
TTITLE10=Blue Yodel No6 (1951)
TTITLE11=Travelin' Blues (1951)
TTITLE12=Blue Yodel No2 (My Loving Gal Lucille) (1951)
TTITLE13=My Rough And Rowdy Ways (1951)
TTITLE14=Don't Stay Away (Till Love Grows Cold) (1952)
TTITLE15=A King Without A Queen (1954)
TTITLE16=Forever (And Always) (1952)
TTITLE17=Lost Love Blues (1952)
TTITLE18=I'm An Old, Old Man (Tryin' To Live While I Can) (1952)
TTITLE19=(Honey, Baby, Hurry!) (Bring Your Sweet Self Back To Me) (195
TTITLE19=3)
EXTD=
EXTT0=
EXTT1=
EXTT2=
EXTT3=
EXTT4=
EXTT5=
EXTT6=
EXTT7=
EXTT8=
EXTT9=
EXTT10=
EXTT11=
EXTT12=
EXTT13=
EXTT14=
EXTT15=
EXTT16=
EXTT17=
EXTT18=
EXTT19=
PLAYORDER=
